<svg width="70" height="70" viewBox="0 0 70 70" fill="none" xmlns="http://www.w3.org/2000/svg">
<path d="M58.9277 43.832C58.791 43.3398 59.0918 42.6562 59.3789 42.1641C59.4667 42.0176 59.5625 41.8761 59.666 41.7402C62.1218 38.091 63.4355 33.7932 63.4394 29.3945C63.4805 16.7891 52.8437 6.5625 39.6914 6.5625C28.2207 6.5625 18.6504 14.3691 16.4082 24.7324C16.0728 26.2684 15.9032 27.836 15.9023 29.4082C15.9023 42.0273 26.1289 52.5273 39.2812 52.5273C41.373 52.5273 44.1894 51.8984 45.7344 51.4746C47.2793 51.0508 48.8105 50.4902 49.207 50.3398C49.6134 50.1866 50.0442 50.1079 50.4785 50.1074C50.9524 50.1056 51.4219 50.1986 51.8594 50.3809L59.6113 53.1289C59.7812 53.2008 59.961 53.2469 60.1445 53.2656C60.4346 53.2656 60.7128 53.1504 60.9179 52.9453C61.123 52.7402 61.2383 52.462 61.2383 52.1719C61.2287 52.0467 61.2058 51.923 61.1699 51.8027L58.9277 43.832Z" stroke="black" stroke-width="3.5" stroke-miterlimit="10" stroke-linecap="round"/>
<path d="M9.08641 31.7188C7.29325 34.9402 6.42581 38.5947 6.57999 42.2784C6.73417 45.962 7.90396 49.5313 9.96004 52.5916C10.2759 53.0688 10.4536 53.4379 10.3989 53.6854C10.3442 53.9328 8.76786 62.1441 8.76786 62.1441C8.72994 62.3363 8.74432 62.5351 8.8095 62.7198C8.87467 62.9045 8.98825 63.0683 9.13836 63.1941C9.33867 63.3537 9.58773 63.4397 9.84383 63.4375C9.98069 63.4379 10.1161 63.4099 10.2417 63.3555L17.9266 60.3477C18.4556 60.1391 19.0456 60.149 19.5673 60.375C22.1567 61.384 25.0196 62.0156 27.8839 62.0156C31.7274 62.0197 35.5035 61.006 38.8282 59.0775" stroke="black" stroke-width="3.5" stroke-miterlimit="10" stroke-linecap="round"/>
</svg>
