<svg width="70" height="70" viewBox="0 0 70 70" fill="none" xmlns="http://www.w3.org/2000/svg">
<path d="M47.25 37.1433V61.3125C47.25 64.7297 44.5711 67.5 41.2102 67.5H15.0469C11.6789 67.5 9 64.7297 9 61.3125V24.1875C9.00959 22.5494 9.66457 20.9812 10.8229 19.8229C11.9812 18.6646 13.5494 18.0096 15.1875 18H28.4231C28.8813 18.0007 29.3347 18.0926 29.7569 18.2703C30.1792 18.448 30.5619 18.7079 30.8827 19.035L46.2319 34.6444C46.8849 35.3122 47.2504 36.2092 47.25 37.1433Z" stroke="black" stroke-width="3.5" stroke-linejoin="round"/>
<path d="M28.125 18V33.1875C28.1374 34.2279 28.5562 35.2223 29.292 35.958C30.0277 36.6938 31.0221 37.1126 32.0625 37.125H47.25" stroke="black" stroke-width="3.5" stroke-linecap="round" stroke-linejoin="round"/>
<path d="M24.75 18V10.6875C24.7596 9.04943 25.4146 7.48119 26.5729 6.32288C27.7312 5.16457 29.2994 4.50959 30.9375 4.5H44.1562C44.6169 4.50064 45.0729 4.59242 45.4979 4.77005C45.9229 4.94769 46.3086 5.20766 46.6327 5.535L61.9819 21.1444C62.6345 21.805 63.0003 22.6964 63 23.625V47.8125C63 51.2297 60.3211 54 56.9602 54H48.375" stroke="black" stroke-width="3.5" stroke-linejoin="round"/>
<path d="M43.875 4.5V19.6875C43.8874 20.7279 44.3062 21.7223 45.042 22.458C45.7777 23.1938 46.7721 23.6126 47.8125 23.625H63" stroke="black" stroke-width="3.5" stroke-linecap="round" stroke-linejoin="round"/>
</svg>
