<svg width="137" height="31" viewBox="0 0 137 31" fill="none" xmlns="http://www.w3.org/2000/svg">
<g clip-path="url(#clip0_4227_2805)">
<path d="M11.0548 9.07272H15.4638V22.1788C15.4638 24.1485 15.3729 26.3699 13.7797 28.1221C12.0955 29.9671 9.52376 30.1871 8.02139 30.1871C6.2152 30.1871 4.0406 29.9061 2.32532 28.4031C1.46887 27.6529 0.578937 26.4628 0.272722 24.713H5.08125C5.26546 25.4315 5.69368 25.8396 6.06209 26.0889C6.58362 26.4334 7.31805 26.5581 7.96158 26.5581C9.21754 26.5581 9.86107 26.0889 10.1673 25.8078C11.0237 24.9623 11.0548 23.4935 11.0548 22.8973V21.3015C10.5333 22.1763 9.49266 23.3982 6.98074 23.3982C4.86834 23.3982 3.24396 22.7091 1.9904 21.4285C0.887544 20.2702 0 18.5815 0 16.1744C0 13.7672 0.856444 11.8269 2.0215 10.605C2.84923 9.7301 4.44011 8.60352 6.98313 8.60352C9.52615 8.60352 10.5668 9.9476 11.0572 10.7003V9.07272H11.0548ZM5.57406 13.4202C4.89944 14.0776 4.53341 15.1724 4.53341 16.0155C4.53341 16.9222 4.87073 17.8606 5.48316 18.518C6.09559 19.1754 6.92332 19.5199 7.96398 19.5199C9.12663 19.5199 9.89217 19.0507 10.3515 18.6133C11.0261 17.9559 11.4232 16.9857 11.4232 15.9544C11.4232 14.8596 10.9639 13.953 10.3826 13.3885C9.73906 12.7946 8.78932 12.5136 7.99507 12.5136C7.01423 12.5136 6.12669 12.8899 5.57646 13.4202H5.57406Z" fill="#1D1D1B"/>
<path d="M32.2137 21.2409C30.9889 22.4921 28.9076 23.494 26.2425 23.494C23.5775 23.494 21.4962 22.4921 20.2713 21.2409C18.8934 19.8332 18.2188 17.8318 18.2188 16.0478C18.2188 14.2638 18.8934 12.2624 20.2713 10.8547C21.4962 9.60352 23.5775 8.60156 26.2425 8.60156C28.9076 8.60156 30.9889 9.60352 32.2137 10.8547C33.5917 12.2624 34.2663 14.2638 34.2663 16.0478C34.2663 17.8318 33.5917 19.8332 32.2137 21.2409ZM23.7617 13.4207C23.1182 14.0781 22.7522 14.9212 22.7522 16.0478C22.7522 17.3308 23.2426 18.1446 23.7617 18.6749C24.3119 19.2369 25.1086 19.6768 26.2736 19.6768C27.2545 19.6768 28.0798 19.3323 28.7233 18.6749C29.3669 18.0175 29.7329 17.1744 29.7329 16.0478C29.7329 14.9212 29.3645 14.0781 28.7233 13.4207C28.0798 12.7633 27.2545 12.4188 26.2425 12.4188C25.2306 12.4188 24.4052 12.7633 23.7617 13.4207Z" fill="#1D1D1B"/>
<path d="M40.2989 12.6691V23.0234H37.2989V12.6691H36.043V9.85383H37.2989V5.03711H40.2989V9.85383H42.5955V12.6691H40.2989Z" fill="#1D1D1B"/>
<path d="M57.7211 16.4531C57.7211 20.4878 54.7211 23.4301 50.8312 23.4301C46.9414 23.4301 43.9414 20.4902 43.9414 16.4531C43.9414 12.4159 46.9414 9.50781 50.8312 9.50781C54.7211 9.50781 57.7211 12.3866 57.7211 16.4531ZM54.6589 16.4848C54.6589 13.4814 52.7307 12.262 50.8312 12.262C48.9318 12.262 47.0036 13.4814 47.0036 16.4848C47.0036 19.0191 48.4724 20.6759 50.8312 20.6759C53.19 20.6759 54.6589 19.0191 54.6589 16.4848Z" fill="#1D1D1B"/>
<path d="M70.2746 9.85434H73.2745V21.9609C73.2745 25.0572 72.9372 27.2786 71.1621 28.8108C70.3344 29.5 68.9875 30.2185 66.8751 30.2185C65.3751 30.2185 63.8752 29.8421 62.6479 28.5909C61.6982 27.6207 60.9637 26.0885 60.7484 24.4927H63.6575C63.7795 25.2111 64.1479 26.0567 64.6072 26.5577C64.9756 26.9633 65.7101 27.4643 66.9349 27.4643C68.1598 27.4643 68.9253 26.9633 69.2937 26.5894C70.2746 25.6192 70.2746 24.2434 70.2746 23.2732V21.5528C68.8966 23.3367 67.2124 23.4296 66.356 23.4296C64.7029 23.4296 63.3249 22.9604 62.1001 21.6456C60.9374 20.3944 60.1719 18.6104 60.1719 16.4208C60.1719 14.0112 61.0594 12.3543 62.0714 11.3231C63.3584 9.97897 64.8895 9.50977 66.4493 9.50977C67.7363 9.50977 69.1741 9.9472 70.277 11.2937V9.85434H70.2746ZM64.5474 13.1388C63.7819 13.8573 63.2316 15.0792 63.2316 16.4868C63.2316 17.8016 63.7221 19.0821 64.5187 19.803C65.0689 20.304 65.8967 20.6779 66.8153 20.6779C67.7339 20.6779 68.5904 20.3969 69.3272 19.6148C70.2148 18.6447 70.4612 17.5181 70.4612 16.5186C70.4612 15.0474 70.0019 13.9526 69.2363 13.2023C68.5019 12.4521 67.6741 12.2639 66.8177 12.2639C65.9612 12.2639 65.2244 12.4839 64.5522 13.1388H64.5474Z" fill="#1D1D1B"/>
<path d="M88.6183 20.0205C88.0681 21.0225 87.2715 21.8974 86.4437 22.4301C85.4031 23.1192 84.0251 23.4321 82.6471 23.4321C80.9318 23.4321 79.5228 22.9946 78.2979 21.7434C77.0731 20.4922 76.3984 18.6789 76.3984 16.7067C76.3984 14.7346 77.1018 12.7038 78.451 11.2937C79.5228 10.1989 80.9319 9.50977 82.7691 9.50977C84.8217 9.50977 86.1375 10.4164 86.903 11.2302C88.5561 12.9824 88.7092 15.4213 88.7092 16.7996V17.1759H79.4606C79.5228 18.1144 79.9199 19.1774 80.5634 19.8348C81.2668 20.5533 82.1256 20.6803 82.86 20.6803C83.6878 20.6803 84.3002 20.4922 84.9126 20.023C85.4342 19.6173 85.8313 19.0845 86.1064 18.5836L88.6183 20.023V20.0205ZM85.6471 14.6711C85.5251 13.9526 85.1878 13.327 84.7284 12.8871C84.3313 12.5107 83.6878 12.1368 82.7069 12.1368C81.6663 12.1368 80.9917 12.5743 80.5945 12.9824C80.1663 13.3881 79.829 14.0137 79.6759 14.6711H85.6471Z" fill="#1D1D1B"/>
<path d="M94.9278 12.6691V23.0234H91.9278V12.6691H90.6719V9.85383H91.9278V5.03711H94.9278V9.85383H97.2244V12.6691H94.9278Z" fill="#1D1D1B"/>
<path d="M99.2422 0.21875H102.242V10.9788C103.529 9.63468 104.936 9.50761 105.701 9.50761C108.06 9.50761 109.132 10.7588 109.498 11.2916C110.295 12.4793 110.326 14.014 110.326 14.9524V23.0242H107.326V15.2359C107.326 14.4538 107.326 13.6083 106.744 12.9534C106.407 12.577 105.826 12.2642 105.06 12.2642C104.051 12.2642 103.254 12.7652 102.855 13.359C102.426 13.9846 102.242 14.9866 102.242 16.6752V23.0267H99.2422V0.21875Z" fill="#1D1D1B"/>
<path d="M125.333 20.0205C124.783 21.0225 123.986 21.8974 123.159 22.4301C122.118 23.1192 120.74 23.4321 119.362 23.4321C117.647 23.4321 116.238 22.9946 115.013 21.7434C113.788 20.4922 113.113 18.6789 113.113 16.7067C113.113 14.7346 113.817 12.7038 115.166 11.2937C116.238 10.1989 117.647 9.50977 119.484 9.50977C121.537 9.50977 122.852 10.4164 123.618 11.2302C125.271 12.9824 125.424 15.4213 125.424 16.7996V17.1759H116.175C116.238 18.1144 116.635 19.1774 117.278 19.8348C117.982 20.5533 118.84 20.6803 119.575 20.6803C120.403 20.6803 121.015 20.4922 121.627 20.023C122.149 19.6173 122.546 19.0845 122.821 18.5836L125.333 20.023V20.0205ZM122.362 14.6711C122.24 13.9526 121.903 13.327 121.443 12.8871C121.046 12.5107 120.403 12.1368 119.422 12.1368C118.381 12.1368 117.706 12.5743 117.309 12.9824C116.881 13.3881 116.544 14.0137 116.391 14.6711H122.362Z" fill="#1D1D1B"/>
<path d="M128.547 9.85434H131.547V11.042C131.884 10.6364 132.375 10.1965 132.803 9.9472C133.384 9.60263 133.965 9.50977 134.64 9.50977C135.374 9.50977 136.171 9.6344 136.999 10.1354L135.774 12.9189C135.099 12.4814 134.549 12.4496 134.243 12.4496C133.599 12.4496 132.956 12.5425 132.375 13.1681C131.547 14.0748 131.547 15.326 131.547 16.2033V23.0239H128.547V9.85434Z" fill="#1D1D1B"/>
</g>
<defs>
<clipPath id="clip0_4227_2805">
<rect width="137" height="30" fill="white" transform="translate(0 0.21875)"/>
</clipPath>
</defs>
</svg>
