<svg width="105" height="105" viewBox="0 0 105 105 " fill="none" xmlns="http://www.w3.org/2000/svg" >
<g clip-path="url(#clip0_4438_2877)">
<path d="M52.0454 10.5895C51.9437 10.5244 51.8256 10.4897 51.7048 10.4894C51.5841 10.4891 51.4658 10.5234 51.3639 10.5881C44.518 14.8503 36.7498 32.5621 36.902 46.4355C36.9198 48.8989 37.1518 51.3561 37.5955 53.7793C35.2851 55.7511 33.3352 58.0754 32.3382 60.7026C29.5408 68.1389 34.0339 75.4905 36.1849 78.4192C36.303 78.5795 36.4564 78.7103 36.6332 78.8017C36.8101 78.8931 37.0056 78.9425 37.2046 78.9462C37.4036 78.9498 37.6008 78.9076 37.7809 78.8228C37.9609 78.738 38.1191 78.6128 38.243 78.457L45.4898 69.21C46.1253 69.82 46.7914 70.3972 47.4856 70.9395C47.9609 71.3189 48.5536 71.5207 49.1616 71.5103L55.5559 71.4378C56.1645 71.4344 56.7529 71.2188 57.2196 70.8281C57.8973 70.2737 58.5465 69.6853 59.1646 69.0652L66.613 78.1374C66.7404 78.29 66.9012 78.4112 67.083 78.4916C67.2647 78.5721 67.4625 78.6097 67.6611 78.6016C67.8597 78.5934 68.0538 78.5397 68.2283 78.4446C68.4028 78.3495 68.5532 78.2155 68.6677 78.053C70.763 75.0853 75.1004 67.6214 72.123 60.2648C71.0646 57.6588 69.0739 55.3905 66.7398 53.4713C67.1334 51.0353 67.3134 48.5696 67.2776 46.1023C67.1588 32.2113 59.2452 14.9889 52.0454 10.5895ZM52.0833 43.4927C50.8668 43.5066 49.6734 43.1595 48.6542 42.4951C47.635 41.8308 46.8357 40.8792 46.3573 39.7606C45.879 38.642 45.7431 37.4066 45.9668 36.2108C46.1906 35.0149 46.764 33.9123 47.6144 33.0423C48.4649 32.1724 49.5542 31.5741 50.7447 31.3233C51.9352 31.0725 53.1733 31.1803 54.3025 31.6332C55.4316 32.0861 56.4012 32.8636 57.0884 33.8675C57.7757 34.8714 58.1498 36.0566 58.1634 37.2731C58.1734 38.0809 58.024 38.8828 57.7237 39.6328C57.4234 40.3829 56.9782 41.0663 56.4134 41.644C55.8486 42.2217 55.1755 42.6824 54.4325 42.9996C53.6894 43.3168 52.8911 43.4844 52.0833 43.4927Z" stroke="black" stroke-width="3.5" stroke-linecap="round" stroke-linejoin="round"/>
<path d="M47.299 76.8925C46.4212 78.0426 45.9528 79.453 45.9682 80.8997C46.0151 84.495 52.5918 91.2607 52.5918 91.2607C52.5918 91.2607 59.0175 84.3435 58.9758 80.7512C58.9624 79.3027 58.4613 77.9009 57.5534 76.7722" stroke="black" stroke-width="3.5" stroke-linecap="round" stroke-linejoin="round"/>
</g>
<defs>
<clipPath id="clip0_4438_2877">
<rect width="70" height="70" fill="white" transform="translate(0 52.7402) rotate(-45.6496)"/>
</clipPath>
</defs>
</svg>
